#!OML:ASF F:\VICON\USERDATA\INSTALL\rory3\rory3.ASF
:FULLY-SPECIFIED
:DEGREES
64
root 0.4788990081247666 17.626118057239946 32.42682196934501 0.6091625788172297 4.026139019121701 -0.3336663928907593
lfemur -16.411355870039817 0.09042397060555953 -23.786061461369783
ltibia 42.703716830964325
lfoot 1.6343239365450302 -10.405671003016808
ltoes -5.559746371087055
rfemur -15.948011297450304 1.0915385202470749 23.729868132259696
rtibia 100.99733748663206
rfoot 3.938456255093045 -6.419609546680227
rtoes -0.647291503606076
lowerback 13.287635989423244 1.017002150088882 -0.19916419578347844
upperback -0.3238439404183788 1.5733749194827717 0.48187521254984356
thorax -8.45585876890725 0.8065342968189774 0.422613929587515
lowerneck -19.694656158765937 -4.119838289107939 -1.6846436583184063
upperneck 9.921108950737802 -5.257766772991367 3.56247009929252
head 6.347283616235777 -2.485252007979445 0.9110809172471998
lclavicle 4.2874894013840705e-15 5.758947334063212e-17
lhumerus -44.17489548190091 -13.09527172660075 96.95630502355755
lradius 109.96452019818803
lwrist 28.270362215241732
lhand -29.4898242554524 2.7808356829140695
lfingers 7.125019999999998
lthumb -3.155446357345519 32.14129754557685
rclavicle 4.287456057901627e-15 5.756553917791964e-17
rhumerus -41.77777724598595 15.757458096968447 -100.9591619728544
rradius 103.85706350725803
rwrist -9.315504173749575
rhand -20.422786876686885 36.57075588545872
rfingers 7.125019999999998
rthumb 5.849664238321761 6.560063623937703
65
root 0.4672735749519301 17.52284187936032 32.86073673753656 0.7176949312370113 3.93807435582862 0.11710489676252522
lfemur -16.628034872746166 -0.36110510353742464 -24.706571104512577
ltibia 41.5840511935151
lfoot 0.4270126921551832 -11.428950173242837
ltoes -6.706068845012314
rfemur -18.398922580064678 0.9555162624134144 23.339814224339285
rtibia 99.79698634405528
rfoot 4.243438419888713 -5.573365681025805
rtoes -0.8732436556064516
lowerback 13.453858986668008 0.829839864667478 -0.7691709632893617
upperback -0.30923225698485973 1.2480953756323263 0.42561678628552413
thorax -8.433575785105049 0.7410436010303348 0.7629715725460311
lowerneck -19.847913676265865 -4.067907277064867 -1.7280064870212828
upperneck 10.09303223683865 -5.120845849804571 3.5110757532344525
head 6.370481900611232 -2.432550805714669 0.9056016467042752
lclavicle 4.2874894013840705e-15 5.758947334063212e-17
lhumerus -43.39772352193898 -13.516023977432164 96.70204555586858
lradius 110.21777012656854
lwrist 28.448193938696733
lhand -29.46902108964442 2.7584812466998088
lfingers 7.125019999999998
lthumb -3.2048424678914675 32.13649069936517
rclavicle 4.287456057901627e-15 5.756553917791964e-17
rhumerus -43.21488308564874 15.227750120435806 -101.27805285341664
rradius 104.20764952208474
rwrist -9.386946808561936
rhand -20.38038089961911 36.57632564795065
rfingers 7.125019999999998
rthumb 5.815476232562547 6.496190818636155
66
root 0.44749073644940895 17.417990746560797 31.901671715532252 0.8265308740686521 3.4839526041766167 0.32053881024255126
lfemur -13.588872593184698 -0.2513706906847327 -24.58547218999917
ltibia 40.03445402233276
lfoot 0.6481601355699875 -11.834143804724228
ltoes -7.817511412784749
rfemur -21.721353020550268 0.6093758217964944 22.63178810151016
rtibia 97.27536120698812
rfoot 4.097314507945475 -4.909376584712361
rtoes -0.6654207427471839
lowerback 13.509633535247513 0.6150097001676833 -1.279016717004373
upperback -0.330431304382131 0.9070492060886174 0.41812970909596303
thorax -8.489785639095293 0.6058838529052679 0.9405064544345045
lowerneck -19.907715999428536 -3.9578400520154053 -1.7543438714488013
upperneck 10.294126348734501 -4.989736547431151 3.44445277970134
head 6.414581144715137 -2.3776415008039407 0.896939769348345
lclavicle 4.2874894013840705e-15 5.758947334063212e-17
lhumerus -42.503286790158654 -13.516491904767992 96.57031366411006
lradius 110.39960899506384
lwrist 28.538288681838786
lhand -29.462691821146528 2.761516680997582
lfingers 7.125019999999998
lthumb -3.1721686981778294 32.30787825420725
rclavicle 4.287456057901627e-15 5.756553917791964e-17
rhumerus -44.38145994718117 14.855714704098645 -101.3986383221331
rradius 104.43627457113534
rwrist -9.5123302301786
rhand -20.43097945413449 36.5066321414743
rfingers 7.125019999999998
rthumb 5.848646656314086 6.587775946897011
67
root 0.4672224399197942 17.384259598766995 33.088197400529296 1.1460160705724398 3.3626985513673184 0.6464887048298555
lfemur -13.838786129780969 -0.5371846486821933 -24.905188007242785
ltibia 38.16058896176585
lfoot 1.5011224264754401 -11.639877051456718
ltoes -8.80358556786777
rfemur -24.373412903055417 0.3826942244746845 22.578933500383638
rtibia 93.41120400138351
rfoot 3.457967421216325 -4.356875708053671
rtoes -0.31028243525194066
lowerback 13.52738995104841 0.42499830735430943 -1.5882851978410215
upperback -0.3788006730422943 0.5890527588604926 0.47457709412322424
thorax -8.45679974441467 0.5421726255681518 1.2468318188032614
lowerneck -19.926767303152026 -3.8358122014660068 -1.787000801864809
upperneck 10.523344367093095 -4.846873505352797 3.3972510036248424
head 6.478887338812506 -2.3145058707735435 0.8956205908568199
lclavicle 4.2874894013840705e-15 5.758947334063212e-17
lhumerus -42.953531111751815 -13.554278115075562 96.29206398227271
lradius 110.4807766079347
lwrist 28.42335371478851
lhand -29.27545722603821 2.8970878031940113
lfingers 7.125019999999998
lthumb -3.240282455414041 32.34900795567954
rclavicle 4.287456057901627e-15 5.756553917791964e-17
rhumerus -46.00431540170489 14.44106629659194 -101.5718509926357
rradius 104.5848839765724
rwrist -9.576877300869823
rhand -20.47018923039903 36.43953934985271
rfingers 7.125019999999998
rthumb 5.8530346979563985 6.652279572024587
